<?xml version="1.0" standalone="no"?>
<!DOCTYPE svg PUBLIC "-//W3C//DTD SVG 20010904//EN"
 "http://www.w3.org/TR/2001/REC-SVG-20010904/DTD/svg10.dtd">
<svg version="1.0" xmlns="http://www.w3.org/2000/svg"
 width="2320.000000pt" height="3088.000000pt" viewBox="0 0 2320.000000 3088.000000"
 preserveAspectRatio="xMidYMid meet">
<metadata>
Created by potrace 1.15, written by Peter Selinger 2001-2017
</metadata>
<g transform="translate(0.000000,3088.000000) scale(0.100000,-0.100000)"
fill="#000000" stroke="none">
<path d="M0 15440 l0 -15440 11600 0 11600 0 0 15440 0 15440 -11600 0 -11600
0 0 -15440z m13251 7071 c-15 -27 3 -28 22 -1 12 18 16 18 33 5 10 -8 26 -15
34 -15 8 0 23 -11 32 -24 14 -19 15 -25 4 -29 -7 -3 -16 -15 -19 -27 -4 -17
-1 -21 14 -18 11 2 19 7 19 13 -1 5 7 12 17 16 10 3 18 11 18 17 0 6 9 18 20
26 19 15 18 15 -14 16 -29 0 -37 13 -10 16 5 1 14 2 19 3 6 0 10 10 10 22 0
12 5 19 13 16 6 -2 12 -13 12 -25 0 -12 6 -27 12 -33 16 -16 36 -1 30 22 -3
11 -1 19 4 19 5 0 9 -5 9 -12 0 -7 6 -6 18 4 30 26 50 29 57 7 4 -10 13 -19
21 -19 8 0 19 -11 25 -24 13 -28 66 -41 89 -21 8 7 26 15 38 18 21 5 23 3 18
-19 -5 -18 -2 -24 9 -24 12 0 15 -8 11 -40 -6 -47 9 -54 18 -9 4 22 10 30 21
25 8 -3 18 2 23 11 8 14 10 14 15 -1 3 -8 2 -18 -4 -21 -5 -4 -7 -10 -4 -15 3
-5 1 -11 -5 -15 -15 -9 -12 -19 11 -49 19 -25 23 -26 38 -12 10 9 36 17 59 18
28 1 42 6 42 15 0 23 28 14 34 -12 3 -13 15 -29 26 -35 11 -6 18 -15 15 -21
-11 -17 -43 -10 -62 14 -18 23 -46 25 -70 5 -19 -15 -16 -23 12 -36 27 -13 34
-56 15 -93 -8 -13 -7 -19 0 -19 7 0 10 -6 7 -12 -2 -7 -9 -12 -15 -11 -19 4
-34 -37 -28 -72 8 -40 -15 -90 -32 -73 -15 15 -16 38 -2 38 6 0 10 5 10 10 0
6 -9 10 -20 10 -26 0 -26 22 0 45 11 10 17 22 13 28 -3 6 -10 0 -15 -14 -7
-19 -11 -21 -18 -9 -8 13 -11 12 -24 -5 -8 -11 -11 -24 -6 -29 5 -5 6 -14 3
-21 -2 -7 5 -16 17 -20 16 -5 19 -10 11 -18 -7 -7 -15 -6 -26 3 -8 7 -15 8
-15 3 0 -15 23 -33 42 -33 10 0 18 -7 18 -17 0 -13 -3 -14 -12 -5 -18 18 -28
15 -28 -9 0 -19 4 -21 38 -16 28 5 33 4 19 -4 -9 -6 -15 -14 -12 -20 4 -5 1
-9 -5 -9 -19 0 -70 30 -70 41 0 6 -12 9 -27 7 -28 -3 -30 -8 -19 -38 4 -9 0
-24 -8 -35 -14 -20 -15 -20 -47 -1 -32 19 -32 19 -51 -4 -10 -12 -18 -26 -18
-30 0 -11 42 -9 58 3 18 14 15 -3 -5 -25 -22 -24 -2 -23 30 2 14 11 28 20 31
20 13 0 5 -48 -9 -60 -8 -7 -15 -19 -15 -26 0 -19 -10 -17 -40 6 -33 26 -37
25 -43 -6 -4 -24 -3 -25 29 -19 21 4 34 2 34 -5 0 -6 11 -16 25 -22 14 -6 25
-15 25 -20 0 -5 -4 -7 -10 -3 -5 3 -4 -8 2 -26 6 -17 19 -34 28 -36 15 -4 17
-10 10 -34 -8 -27 -3 -34 17 -26 4 1 6 12 5 25 -5 35 42 30 79 -10 l30 -33 19
25 18 24 12 -26 c9 -19 9 -31 1 -44 -6 -11 -11 -13 -11 -6 0 14 -30 17 -30 2
0 -5 -4 -10 -10 -10 -5 0 -10 7 -10 15 0 8 -7 15 -15 15 -8 0 -15 -3 -15 -8 0
-12 39 -42 55 -42 8 0 15 -9 15 -20 0 -17 5 -19 25 -14 15 4 25 2 25 -5 0 -6
-4 -11 -9 -11 -5 0 -7 -8 -4 -19 3 -12 11 -17 23 -14 12 3 27 -4 42 -21 18
-21 33 -27 66 -29 42 -1 55 -13 27 -23 -8 -4 -15 -10 -15 -15 0 -5 7 -9 15 -9
8 0 15 5 15 10 0 6 5 10 11 10 6 0 8 -9 4 -20 -4 -11 -2 -20 4 -20 6 0 11 6
11 14 0 8 5 18 11 22 7 4 9 0 5 -12 -9 -30 9 -47 49 -49 30 -1 35 2 32 17 -5
19 17 25 28 8 4 -6 13 -7 24 -1 10 6 23 6 32 0 24 -15 28 -10 17 22 -7 21 -7
34 0 41 12 12 35 1 27 -13 -10 -15 22 -10 35 6 20 24 30 17 26 -17 -3 -25 -8
-32 -22 -30 -15 3 -16 1 -5 -12 8 -9 21 -16 30 -16 9 0 22 -5 29 -12 9 -9 12
-9 12 1 0 11 3 11 15 1 15 -12 35 -6 35 11 0 5 -7 9 -16 9 -8 0 -12 5 -9 10 3
6 17 7 30 4 16 -4 29 0 42 13 27 29 45 63 33 63 -5 0 -10 7 -10 15 0 9 -7 18
-15 21 -23 9 -18 26 8 22 16 -2 22 2 22 17 0 11 4 26 9 33 13 21 -4 29 -19 9
-7 -10 -15 -15 -18 -10 -9 15 1 63 18 79 15 15 17 15 22 -5 3 -11 9 -21 14
-21 5 0 9 -7 9 -15 0 -8 5 -15 10 -15 15 0 12 11 -7 32 -16 17 -16 20 1 36 13
12 20 13 23 5 5 -15 33 -5 33 11 0 7 -16 18 -35 25 -19 7 -33 17 -29 22 3 5 9
7 14 4 5 -3 21 -3 35 1 18 4 25 13 25 29 0 13 7 26 16 29 13 5 14 9 4 21 -6 8
-10 20 -7 27 4 10 26 -27 31 -52 6 -29 39 -41 34 -12 -2 10 3 17 12 17 9 0 14
-7 12 -17 -4 -22 14 -24 22 -3 3 8 10 15 16 15 5 0 10 -7 10 -15 0 -8 9 -15
20 -15 10 0 24 -8 29 -17 10 -16 11 -16 17 5 7 23 26 31 23 10 -3 -26 1 -39
11 -33 6 3 10 1 10 -5 0 -7 7 -10 15 -7 8 4 17 2 21 -4 4 -6 11 -6 20 2 11 9
14 7 14 -9 0 -27 15 -35 30 -17 9 11 16 12 25 5 7 -6 19 -8 28 -4 11 4 16 -1
19 -17 3 -20 10 -23 53 -25 41 -2 53 2 67 19 l18 22 6 -22 c8 -28 38 -48 85
-57 44 -8 63 -43 63 -119 0 -34 2 -43 8 -28 11 30 29 26 26 -6 -2 -32 20 -103
32 -103 4 0 10 -12 13 -27 3 -16 11 -47 18 -70 15 -49 10 -59 -22 -43 -23 13
-23 15 -3 -35 3 -8 2 -15 -3 -15 -5 0 -10 -6 -10 -12 0 -7 -4 -21 -8 -30 -5
-13 -3 -18 8 -18 24 0 28 -29 6 -41 -12 -6 -18 -17 -15 -25 3 -8 1 -14 -4 -14
-14 0 -13 -33 1 -47 7 -7 8 -17 3 -25 -13 -20 -11 -41 6 -63 14 -18 14 -19 -2
-6 -16 12 -18 11 -18 -8 0 -12 6 -21 15 -21 8 0 15 -7 15 -16 0 -8 -4 -13 -9
-9 -5 3 -13 0 -17 -6 -3 -6 -1 -15 6 -19 7 -4 9 -13 6 -19 -4 -6 -9 -20 -11
-32 -2 -12 -12 -27 -22 -35 -17 -13 -17 -13 4 -14 12 0 23 6 26 13 2 7 8 8 13
3 5 -5 4 -11 -3 -13 -16 -6 -17 -39 -3 -48 8 -5 8 -11 0 -20 -8 -10 -5 -20 14
-40 13 -14 27 -22 30 -17 3 6 -1 12 -9 16 -21 8 -19 26 4 26 18 0 32 -25 35
-60 1 -8 11 -16 24 -18 23 -4 30 -18 11 -24 -9 -3 -9 -9 0 -25 14 -27 14 -43
1 -43 -17 0 -69 -64 -70 -85 0 -16 -2 -17 -10 -5 -5 8 -12 12 -15 8 -11 -10
-8 -90 3 -97 6 -3 10 -28 9 -54 -2 -38 -5 -46 -18 -42 -18 6 -54 -23 -44 -34
4 -3 12 2 20 12 11 15 13 16 19 2 3 -8 17 -15 33 -15 18 0 33 -8 41 -21 18
-29 2 -45 -28 -29 -12 6 -24 9 -27 6 -4 -3 -12 -1 -18 4 -8 6 -22 7 -36 2
l-23 -9 27 -7 c39 -9 26 -23 -17 -18 -23 3 -36 10 -36 19 0 20 -84 103 -104
103 -9 0 -19 7 -22 15 -4 8 -14 15 -24 15 -10 0 -28 13 -40 30 -13 18 -26 27
-36 23 -10 -4 -17 2 -21 16 -6 22 -27 28 -38 11 -10 -16 -61 -12 -76 6 -7 8
-21 13 -31 11 -11 -3 -22 2 -28 14 -9 15 -18 18 -46 13 -22 -3 -34 -2 -30 4 8
13 -20 36 -34 27 -14 -9 -13 -35 3 -35 7 0 20 -9 29 -20 17 -19 16 -19 -32
-14 -50 5 -60 -2 -39 -23 10 -10 -14 -12 -89 -4 -28 2 -4 25 28 25 22 1 36 7
44 21 6 11 16 23 21 27 7 5 6 8 -1 8 -5 0 -19 -7 -30 -15 -25 -19 -63 -19 -70
0 -4 8 -12 15 -20 15 -8 0 -14 7 -14 15 0 19 -42 37 -52 22 -4 -7 -11 -7 -22
2 -8 7 -24 10 -35 6 -14 -4 -23 0 -30 13 -9 16 -18 19 -55 15 -41 -5 -45 -3
-48 18 -3 27 -38 40 -38 15 0 -11 -9 -16 -30 -16 -16 0 -30 2 -30 4 0 2 -3 12
-6 20 -5 14 -2 15 21 6 36 -14 37 -13 33 12 -2 17 4 23 30 30 17 5 32 13 32
19 0 6 -9 7 -22 3 -12 -4 -43 -7 -68 -8 -39 -1 -45 -4 -48 -24 -3 -16 -10 -22
-25 -21 -47 4 -60 0 -48 -15 17 -20 -1 -28 -38 -15 -37 13 -38 15 -8 40 l22
18 -22 1 c-22 0 -48 32 -36 44 3 3 -1 6 -9 6 -9 0 -18 -9 -21 -20 -3 -13 -10
-18 -21 -14 -9 3 -28 -2 -42 -11 -15 -9 -23 -12 -20 -6 12 18 -90 7 -112 -12
-10 -9 -22 -14 -25 -10 -11 11 -8 23 6 23 8 0 22 9 32 20 17 18 17 20 1 26
-10 4 -22 2 -29 -5 -6 -6 -19 -11 -29 -11 -10 0 -18 -5 -18 -10 0 -6 -12 -9
-27 -8 -19 2 -28 -2 -28 -12 -1 -19 -14 -40 -25 -40 -5 0 -7 7 -4 15 4 10 0
15 -15 15 -14 0 -21 6 -21 20 0 20 -14 21 -68 4 -7 -2 -15 2 -18 10 -7 18 -82
0 -107 -26 -22 -23 -37 -23 -37 0 0 9 13 23 30 30 17 8 28 18 24 23 -7 12 -44
12 -44 -1 0 -6 -3 -9 -7 -8 -5 1 -19 -4 -33 -12 -53 -31 -87 -15 -74 36 8 30
2 30 -33 -2 -22 -20 -36 -25 -70 -23 -44 3 -83 -18 -95 -52 -7 -17 -48 -33
-48 -18 0 5 11 16 25 25 14 9 25 23 25 31 0 11 -8 10 -37 -8 -21 -13 -44 -32
-52 -42 -10 -14 -21 -17 -43 -13 -34 7 -62 31 -53 46 11 18 -3 10 -37 -20 -18
-16 -38 -30 -45 -30 -8 0 -18 -11 -23 -25 -5 -14 -14 -25 -20 -25 -7 0 -9 -8
-5 -20 4 -11 2 -20 -4 -20 -6 0 -11 5 -11 11 0 5 -4 8 -9 5 -17 -11 -61 13
-61 33 0 14 -5 18 -20 14 -15 -4 -19 -11 -15 -24 9 -28 -13 -62 -36 -56 -18 5
-19 2 -13 -26 l6 -32 -22 28 c-24 30 -50 36 -50 12 0 -24 -52 -65 -74 -59 -15
5 -16 3 -8 -11 16 -30 4 -53 -26 -47 -15 3 -33 9 -40 15 -21 16 -29 0 -35 -68
-1 -16 -6 -35 -10 -42 -5 -7 0 -17 11 -24 12 -8 17 -20 14 -34 -2 -12 5 -55
17 -95 11 -40 18 -77 15 -81 -7 -12 28 -79 43 -79 7 0 10 -6 7 -15 -4 -8 -12
-15 -19 -15 -7 0 -15 -9 -18 -20 -3 -13 0 -20 9 -20 8 0 14 -7 14 -15 0 -9 10
-20 23 -26 29 -13 55 -51 38 -57 -17 -6 -13 -20 9 -27 13 -4 20 -15 20 -31 0
-14 6 -27 14 -30 14 -5 18 -28 16 -101 0 -18 4 -33 8 -33 4 0 8 -16 9 -35 1
-19 9 -42 18 -51 9 -10 12 -19 7 -23 -15 -9 -9 -68 9 -89 8 -10 13 -24 11 -32
-3 -9 1 -11 12 -7 13 5 15 2 10 -18 -4 -17 0 -29 15 -42 12 -9 21 -23 21 -29
0 -7 7 -15 16 -18 9 -4 14 -13 10 -21 -3 -8 -1 -15 4 -15 6 0 10 6 10 13 0 6
6 3 12 -8 6 -11 14 -22 18 -25 10 -7 34 -53 35 -65 0 -5 10 -10 22 -10 11 0
25 -3 29 -7 4 -5 2 -8 -4 -8 -7 0 -12 -7 -12 -16 0 -12 6 -15 24 -10 16 4 26
1 29 -8 3 -8 18 -16 34 -18 20 -2 27 -8 25 -20 -2 -12 2 -16 11 -12 9 3 23 -8
37 -30 12 -20 26 -34 31 -30 5 3 9 1 9 -5 0 -5 7 -17 16 -25 20 -21 41 -21 24
-1 -9 11 -10 15 0 15 16 0 63 -49 77 -82 7 -16 19 -28 27 -28 8 0 20 -8 25
-17 8 -14 13 -15 19 -5 7 10 14 10 38 -3 16 -8 37 -12 47 -9 9 3 17 1 17 -5 0
-6 7 -11 15 -11 8 0 15 -7 15 -15 0 -10 10 -14 38 -12 24 1 36 -2 35 -10 -2
-8 7 -8 32 3 19 8 39 14 45 14 18 0 11 -17 -12 -27 l-23 -10 25 -13 c14 -8 45
-14 69 -15 26 0 46 -5 48 -12 3 -7 -2 -13 -11 -13 -8 0 -17 -4 -20 -9 -3 -5
10 -8 29 -6 35 4 48 -11 20 -21 -26 -10 -17 -27 11 -20 14 4 32 2 40 -4 7 -7
19 -8 26 -4 7 4 23 9 36 10 l24 3 -23 -25 c-16 -17 -18 -23 -7 -19 9 4 19 2
23 -4 6 -10 -13 -16 -42 -12 -7 1 -13 -3 -13 -9 0 -8 25 -11 75 -9 52 1 80 -2
92 -12 14 -12 16 -12 8 0 -6 11 -2 13 24 8 25 -5 40 -2 61 13 28 20 60 27 60
13 0 -5 11 -13 25 -20 20 -9 25 -8 25 3 0 8 -4 14 -10 14 -5 0 -10 3 -10 8 0
4 19 6 41 4 27 -3 44 0 49 9 5 7 19 14 32 16 13 2 30 6 38 9 27 11 95 11 102
1 8 -13 39 10 37 27 -3 27 4 31 50 29 42 -1 52 3 65 22 8 13 29 26 46 30 17 4
30 13 30 21 0 8 9 24 20 36 17 19 24 20 53 11 27 -8 36 -7 43 4 6 10 24 14 49
14 62 -3 69 -3 80 -1 25 5 45 -1 45 -15 0 -13 6 -12 38 4 56 29 108 36 115 17
3 -8 2 -18 -4 -21 -5 -4 -6 -11 -3 -17 5 -7 12 -5 20 7 7 10 20 15 28 12 8 -3
17 -1 20 6 3 9 7 9 14 -1 6 -9 18 -11 35 -6 29 7 35 -4 15 -24 -9 -9 -8 -12 5
-12 9 0 21 9 27 20 6 11 15 18 21 15 5 -4 17 1 26 11 16 15 16 17 0 29 -9 7
-17 15 -17 19 0 13 21 5 37 -13 9 -11 21 -17 27 -13 6 3 16 7 21 8 6 0 15 2
22 2 6 1 13 14 15 29 2 14 9 28 17 31 9 3 11 -2 6 -17 -3 -12 -2 -21 4 -21 17
0 100 102 94 116 -3 8 1 14 11 14 11 0 16 -9 16 -27 0 -26 1 -26 15 -7 13 17
14 17 15 2 0 -11 8 -18 20 -18 31 0 24 -18 -10 -25 -30 -7 -38 -19 -20 -30 15
-9 -1 -37 -17 -30 -11 4 -13 1 -9 -11 3 -8 6 -19 6 -23 0 -11 43 -29 56 -24 7
2 10 12 7 22 -6 25 12 34 37 19 23 -14 26 -34 8 -41 -10 -3 -10 -9 0 -26 10
-18 10 -22 -3 -27 -15 -6 -18 -54 -3 -54 4 0 8 5 8 10 0 21 18 9 24 -15 4 -17
1 -31 -9 -42 -12 -11 -16 -31 -14 -68 1 -28 0 -55 -3 -61 -13 -24 -8 -83 8
-92 14 -8 15 -14 6 -40 -13 -37 -7 -43 37 -36 33 5 33 5 26 -23 -8 -33 -25
-46 -42 -31 -10 8 -12 4 -11 -16 3 -28 1 -28 73 -10 15 4 12 -2 -13 -25 -31
-30 -32 -32 -16 -56 11 -17 14 -34 9 -52 -8 -35 -26 -57 -34 -44 -9 14 -51 2
-51 -14 0 -7 7 -15 15 -19 27 -10 16 -23 -17 -20 -18 2 -25 1 -15 -2 27 -8 15
-72 -19 -99 -18 -15 -24 -24 -16 -29 17 -10 15 -46 -3 -46 -8 0 -20 -9 -27
-20 -13 -21 -52 -27 -63 -10 -4 6 -11 7 -17 4 -6 -4 -6 -10 1 -17 17 -17 13
-27 -9 -27 -23 0 -27 29 -8 48 10 10 10 15 -2 22 -23 15 -30 12 -30 -10 0 -11
-7 -20 -15 -20 -18 0 -20 -20 -2 -21 10 0 10 -2 0 -6 -7 -2 -13 -10 -13 -18 0
-7 -11 -12 -24 -12 -31 0 -62 53 -44 75 8 9 8 16 0 24 -9 9 -12 8 -12 -5 0
-10 -12 -29 -27 -42 -23 -19 -26 -26 -15 -36 23 -25 14 -39 -27 -39 -22 0 -44
-6 -51 -15 -6 -8 -15 -14 -18 -13 -20 2 -25 -4 -12 -13 12 -8 9 -9 -9 -4 -21
6 -23 4 -18 -14 4 -17 1 -21 -19 -21 -13 0 -33 -9 -44 -20 -17 -17 -18 -21 -5
-26 18 -7 21 -28 3 -21 -14 4 -88 -31 -88 -42 0 -4 -11 -14 -25 -21 -17 -9
-22 -17 -15 -24 7 -7 14 -6 22 2 7 7 23 12 37 12 l24 0 -21 -23 c-12 -13 -22
-30 -22 -38 0 -15 -43 -19 -56 -6 -11 11 -24 -3 -24 -24 0 -17 -5 -20 -28 -15
-22 5 -29 2 -37 -16 -17 -38 -58 -46 -105 -19 -22 12 -40 18 -40 12 0 -5 6
-11 13 -14 8 -3 3 -13 -15 -30 -28 -26 -37 -57 -18 -57 6 0 10 10 10 22 0 12
3 18 7 15 3 -4 12 -2 20 4 7 6 13 8 13 4 0 -4 7 -2 15 5 12 10 18 10 30 0 8
-7 12 -17 9 -22 -4 -6 -10 -6 -17 1 -16 16 -30 13 -23 -5 4 -10 -1 -25 -11
-36 -17 -19 -17 -20 0 -33 25 -18 21 -27 -11 -20 -20 4 -33 1 -42 -10 -7 -8
-19 -15 -26 -15 -24 0 -15 -24 16 -45 24 -16 26 -21 14 -28 -12 -7 -12 -12 -4
-23 12 -14 9 -16 -55 -40 -17 -6 -17 -8 -4 -11 10 -2 15 -11 13 -21 -5 -22 15
-53 23 -34 6 15 55 16 71 0 15 -15 16 -48 1 -48 -6 0 -8 9 -4 20 4 12 2 20 -5
20 -16 0 -41 -26 -32 -34 3 -4 -3 -9 -15 -12 -13 -4 -19 -12 -17 -19 3 -7 -3
-15 -13 -17 -12 -3 -5 -7 18 -12 30 -6 36 -11 32 -27 -4 -16 -11 -19 -32 -14
-24 5 -27 3 -26 -20 2 -35 12 -41 34 -21 25 23 86 27 86 6 0 -11 -9 -14 -34
-12 -26 3 -33 1 -28 -11 4 -10 -1 -13 -19 -9 -18 3 -24 0 -24 -13 0 -14 3 -15
15 -5 11 9 19 8 37 -4 12 -9 18 -16 13 -17 -6 -1 1 -5 15 -9 l25 -8 -22 -7
c-13 -4 -23 -11 -23 -15 0 -4 -9 -10 -20 -13 -21 -5 -27 -31 -10 -42 8 -5 7
-12 -1 -22 -10 -12 -10 -16 2 -23 12 -8 11 -12 -4 -27 -17 -17 -18 -17 -11 0
4 12 1 17 -10 17 -9 0 -19 7 -23 16 -6 15 -7 15 -19 -1 -12 -16 -18 -17 -39
-7 -36 17 -44 15 -17 -4 23 -16 31 -66 10 -61 -7 1 -12 -4 -10 -12 2 -10 -4
-12 -23 -7 -20 5 -25 4 -18 -6 4 -7 8 -16 9 -20 1 -5 2 -11 3 -15 1 -5 6 -1
11 7 9 13 10 13 10 0 0 -21 -17 -45 -32 -46 -7 -1 -19 -2 -25 -3 -7 0 -13 -5
-13 -10 0 -6 16 -7 35 -4 36 6 51 -12 20 -23 -22 -9 -18 -34 11 -77 24 -36 25
-40 10 -63 -19 -28 -31 -31 -40 -9 -3 9 0 15 9 15 8 0 15 5 15 10 0 18 -57 11
-64 -7 -3 -10 -9 -24 -12 -30 -3 -8 1 -13 11 -13 10 0 30 -11 45 -23 21 -18
25 -28 18 -40 -5 -10 -6 -17 -2 -17 3 0 1 -6 -5 -14 -7 -8 -29 -17 -50 -21
-34 -6 -37 -9 -33 -31 2 -13 9 -24 14 -24 5 0 6 -5 3 -10 -4 -6 -1 -17 5 -25
7 -8 10 -25 7 -37 -4 -13 0 -29 9 -39 13 -15 13 -18 -1 -33 -18 -18 -41 -21
-50 -6 -3 5 -12 7 -20 4 -7 -3 -22 -1 -32 5 -16 9 -15 10 9 11 31 0 40 10 29
29 -6 9 -11 10 -15 2 -13 -21 -26 -11 -26 19 0 17 5 30 10 30 6 0 10 -7 10
-15 0 -20 26 -19 34 1 10 25 7 34 -9 34 -8 0 -15 7 -15 16 0 8 5 12 10 9 6 -4
10 5 10 19 0 34 -18 33 -26 -1 -3 -16 -7 -32 -8 -37 -3 -12 -83 -36 -122 -36
-21 0 -36 7 -46 22 -11 16 -19 19 -34 13 -10 -4 -25 -7 -31 -6 -16 2 -16 -4
-3 -30 16 -28 -1 -23 -26 9 l-22 27 5 -27 c4 -21 1 -28 -11 -28 -9 0 -16 -3
-16 -8 0 -4 21 -7 48 -7 47 0 47 0 47 -34 1 -19 -4 -43 -10 -55 -7 -12 -10
-26 -8 -32 6 -19 -57 -26 -74 -9 -8 8 -23 20 -33 25 -26 14 -25 74 2 67 10 -3
21 -1 24 4 3 5 -1 9 -9 9 -10 0 -13 7 -10 19 6 22 -14 38 -29 23 -6 -6 -21 -7
-39 -2 -30 9 -40 -5 -18 -27 7 -7 3 -12 -16 -17 -34 -9 -40 -3 -25 24 16 31 0
45 -37 33 -19 -6 -29 -18 -32 -34 -5 -38 -41 -55 -41 -20 0 25 -20 38 -31 20
-6 -10 -11 -6 -18 14 -12 30 -26 35 -35 12 -8 -23 -25 -18 -36 10 -10 26 -24
32 -35 15 -9 -15 -22 -12 -29 6 -4 12 -1 14 13 9 11 -3 22 -1 25 4 4 6 14 7
24 4 15 -6 15 -5 3 10 -15 18 -51 23 -51 7 0 -5 -6 -10 -14 -10 -8 0 -16 -6
-18 -12 -3 -8 -9 -4 -17 10 -7 13 -21 22 -34 22 -18 0 -19 -2 -7 -10 13 -9 13
-11 1 -19 -8 -5 -30 -12 -49 -16 -27 -5 -38 -2 -54 14 -10 12 -23 21 -29 21
-5 0 -14 12 -19 26 -7 18 -15 24 -26 20 -9 -4 -23 -1 -30 5 -8 6 -21 9 -29 5
-8 -3 -15 -1 -15 4 0 6 7 10 16 10 12 0 15 6 10 23 -3 12 -6 33 -7 47 0 19 -5
14 -17 -22 -21 -57 -48 -81 -74 -64 -21 13 -23 26 -4 26 7 0 19 7 26 15 10 12
10 15 -4 15 -13 0 -14 4 -4 25 13 30 5 43 -17 25 -13 -10 -15 -9 -15 8 0 12 5
24 11 27 6 4 8 13 5 20 -3 8 0 16 7 18 9 3 8 8 -2 20 -11 14 -11 20 -1 32 8 9
10 28 5 51 -3 20 -3 34 2 31 4 -3 9 6 9 19 1 13 -2 24 -8 24 -5 0 -6 6 -1 13
4 6 8 52 9 100 0 66 4 91 15 97 12 8 11 11 -4 23 -13 9 -20 29 -22 60 -1 26
-8 54 -15 62 -6 8 -11 31 -10 52 1 21 1 40 0 43 -4 9 -8 64 -10 144 -2 63 1
82 14 92 9 6 16 19 16 28 0 10 5 27 11 39 26 48 21 197 -6 197 -8 0 -15 9 -15
20 0 11 -9 25 -20 32 -11 7 -20 18 -20 25 0 16 -36 17 -46 2 -5 -8 -10 -6 -16
5 -6 11 -16 15 -29 11 -15 -5 -20 0 -25 23 -4 18 -14 32 -25 35 -11 3 -19 14
-19 26 0 12 -6 21 -15 21 -8 0 -15 -7 -15 -15 0 -9 -6 -12 -15 -9 -8 4 -15 17
-15 30 0 18 -5 23 -21 21 -13 -1 -23 4 -24 13 -10 56 -41 93 -56 69 -5 -8 -9
-12 -10 -9 -8 45 -11 55 -22 62 -6 4 -22 8 -34 8 -13 0 -23 5 -23 11 0 6 -9 8
-22 3 -35 -11 -121 -11 -137 1 -8 5 -30 10 -50 11 -20 1 -43 4 -51 7 -35 12
-60 14 -60 5 0 -22 -55 -58 -90 -58 -117 -2 -135 -5 -132 -23 3 -20 -13 -23
-22 -4 -5 10 -7 10 -12 0 -3 -7 -12 -13 -20 -13 -8 0 -14 -7 -14 -15 0 -10
-10 -15 -27 -15 l-28 0 25 13 c29 15 40 47 15 47 -9 0 -14 -4 -11 -9 9 -14
-22 -34 -44 -28 -11 3 -20 1 -20 -4 0 -13 -48 -11 -52 2 -3 9 -10 9 -26 0 -18
-9 -22 -9 -22 2 0 8 -7 20 -16 28 -13 10 -17 10 -25 -2 -8 -12 -11 -12 -22 1
-13 15 -52 40 -63 40 -3 0 -4 -6 -1 -14 10 -26 -63 -45 -83 -21 -7 8 -16 15
-21 15 -14 0 -11 -17 6 -34 9 -9 11 -17 5 -21 -5 -3 -10 -3 -10 2 0 4 -16 13
-35 19 -27 9 -35 8 -40 -3 -3 -9 -16 -13 -32 -12 -16 2 -33 0 -40 -4 -7 -4
-14 1 -18 13 -7 21 -32 22 -28 1 4 -14 -14 -15 -22 -1 -10 17 -45 12 -39 -5 4
-8 1 -15 -5 -15 -6 0 -11 5 -11 10 0 6 -4 10 -10 10 -5 0 -10 -9 -10 -19 0
-15 -7 -19 -35 -19 -23 0 -35 5 -35 14 0 8 -4 14 -10 14 -5 0 -10 -6 -10 -14
0 -8 -9 -21 -19 -28 -11 -8 -23 -26 -26 -41 -4 -15 -11 -25 -16 -22 -11 7 -34
-36 -30 -57 1 -10 -3 -18 -8 -18 -6 0 -11 5 -11 10 0 6 -4 10 -10 10 -5 0 -10
-6 -10 -13 0 -8 -9 -22 -19 -31 -11 -10 -17 -24 -15 -31 4 -10 -1 -12 -15 -8
-12 3 -21 1 -21 -6 0 -6 -13 -11 -29 -11 -26 0 -30 -4 -36 -39 -6 -37 -35 -80
-35 -52 0 6 -4 11 -9 11 -5 0 -7 -9 -4 -20 3 -13 -1 -22 -12 -26 -13 -5 -15
-14 -11 -43 10 -57 30 -136 36 -141 16 -15 50 -71 50 -82 0 -8 7 -24 16 -36
11 -16 15 -39 12 -77 -1 -30 1 -56 6 -58 5 -2 1 -15 -8 -29 -10 -15 -13 -29
-7 -32 5 -3 7 -16 3 -28 -3 -14 -2 -19 6 -14 7 4 12 2 12 -3 0 -6 -7 -11 -15
-11 -11 0 -15 -12 -14 -47 1 -27 0 -66 -2 -89 -1 -22 1 -45 5 -52 4 -7 3 -12
-2 -12 -5 0 -3 -19 6 -42 8 -24 15 -65 15 -93 1 -48 21 -90 39 -79 4 3 8 1 8
-3 0 -5 -9 -14 -21 -21 -13 -8 -18 -19 -14 -31 3 -12 0 -21 -10 -25 -25 -9 -8
-24 21 -18 25 5 26 3 20 -24 -4 -16 -14 -36 -23 -46 -13 -14 -13 -17 4 -27 17
-10 17 -11 -4 -17 -13 -4 -23 -14 -23 -25 0 -21 15 -33 31 -23 8 4 7 9 -2 15
-11 7 -10 9 4 9 10 0 17 8 17 19 0 11 9 26 21 34 19 14 19 16 3 25 -21 12 -12
28 18 35 13 2 32 8 43 13 17 7 18 6 7 -8 -9 -11 -10 -18 -2 -23 6 -4 8 -15 5
-26 -5 -16 -1 -19 24 -19 17 0 32 -4 32 -10 1 -5 2 -16 3 -22 1 -7 -1 -23 -5
-34 -4 -13 -3 -26 4 -33 19 -19 27 -12 16 16 -6 15 -7 24 -3 20 4 -4 13 -2 21
4 10 9 13 8 13 -4 0 -20 20 -33 29 -19 4 7 29 11 56 9 47 -2 50 -4 53 -30 3
-25 0 -28 -20 -25 -19 2 -23 -1 -20 -21 2 -19 -2 -22 -18 -18 -11 3 -23 1 -26
-5 -3 -5 -15 -8 -25 -5 -11 3 -19 1 -19 -5 0 -15 -52 -53 -67 -50 -7 2 -16 -4
-19 -13 -4 -9 -13 -13 -23 -10 -11 3 -26 -5 -39 -20 -12 -14 -19 -25 -15 -25
4 0 -3 -7 -15 -16 -13 -9 -32 -14 -43 -11 -12 3 -19 0 -19 -8 0 -18 -57 -30
-74 -16 -11 9 -18 8 -29 -4 -9 -8 -23 -15 -31 -15 -9 0 -16 -8 -16 -17 0 -13
-3 -14 -11 -6 -7 7 -24 10 -39 7 -22 -5 -30 0 -53 35 -27 40 -27 41 -6 41 15
0 19 4 15 16 -3 9 -6 20 -6 25 0 6 -6 9 -12 8 -27 -3 -38 2 -38 18 0 9 -3 13
-7 9 -5 -4 -8 -17 -8 -29 0 -29 -35 -36 -42 -9 -11 42 -128 28 -153 -18 -6
-12 -19 -17 -35 -15 -14 1 -28 -1 -30 -5 -3 -4 -21 -11 -40 -14 -21 -4 -35
-13 -35 -21 0 -8 -7 -15 -15 -15 -8 0 -15 -4 -15 -10 0 -5 5 -10 10 -10 6 0
10 -4 10 -10 0 -5 -6 -10 -13 -10 -9 0 -12 -9 -9 -29 3 -26 1 -29 -30 -34 -18
-2 -35 -3 -37 -1 -7 7 21 34 35 34 8 0 14 5 14 10 0 14 -16 13 -40 -2 -15 -10
-22 -10 -32 0 -15 15 -28 15 -28 0 0 -15 -60 -68 -77 -68 -8 0 -13 -6 -12 -12
4 -34 0 -39 -23 -27 -13 7 -39 15 -59 19 -31 6 -35 4 -35 -14 1 -32 -39 -33
-67 -2 -24 26 -52 22 -42 -6 4 -9 2 -19 -4 -23 -10 -5 -35 41 -31 55 1 3 -11
10 -27 17 -15 7 -22 12 -15 13 8 0 10 8 6 25 -7 27 4 33 24 13 16 -16 15 -6
-2 26 -13 25 -14 25 -19 6 -3 -11 -12 -20 -21 -20 -9 0 -16 -7 -16 -16 0 -13
-7 -11 -34 9 -35 27 -76 27 -76 1 0 -8 -7 -14 -16 -14 -11 0 -14 6 -9 20 4 11
2 20 -4 20 -6 0 -8 7 -5 15 7 18 -7 20 -25 3 -11 -11 -13 -7 -8 22 3 19 7 42
9 50 2 10 -4 14 -18 12 -24 -3 -49 22 -39 38 5 9 10 9 18 1 6 -6 21 -11 33
-11 13 0 26 -5 29 -10 10 -17 26 0 20 21 -4 11 -2 19 5 19 6 0 9 4 5 9 -3 5
-1 12 4 15 5 4 12 2 16 -4 3 -5 14 -10 23 -10 30 1 -26 39 -74 51 -26 7 -44
17 -44 25 0 10 7 13 25 8 30 -7 33 1 5 16 -25 13 -50 -7 -50 -39 0 -16 -6 -20
-25 -19 -20 2 -24 6 -19 21 4 13 2 17 -5 13 -6 -4 -11 0 -11 8 0 10 9 16 24
16 14 0 28 5 31 10 3 6 -4 10 -18 10 -14 0 -30 7 -37 15 -10 13 -15 13 -21 3
-10 -16 -16 -10 -25 26 -6 27 -5 29 18 23 22 -6 26 -3 32 24 9 47 7 59 -9 59
-8 0 -15 -4 -15 -10 0 -5 -5 -10 -11 -10 -6 0 -8 9 -4 20 4 13 2 20 -6 20 -7
0 -3 10 9 23 12 13 22 32 21 43 0 17 -1 16 -9 -3 -12 -30 -21 -29 -44 6 -16
23 -26 28 -54 27 -20 0 -37 4 -39 12 -3 6 2 12 10 12 26 0 49 47 41 85 -3 19
-10 35 -14 35 -4 0 -10 13 -12 29 -5 31 12 52 57 73 24 11 45 53 45 90 0 15
-5 18 -22 14 -13 -3 -17 -3 -10 0 6 3 12 12 12 19 0 7 7 16 16 19 8 3 12 11 8
18 -5 8 -13 4 -26 -11 -10 -13 -18 -20 -18 -16 0 4 -7 1 -16 -6 -14 -11 -19
-9 -35 11 -23 30 -19 46 10 43 12 -2 26 6 33 17 13 20 13 20 29 -1 23 -31 44
-15 22 16 -10 14 -23 25 -30 25 -21 0 -25 21 -9 39 20 22 21 35 1 28 -11 -5
-13 0 -9 22 5 24 0 33 -32 59 -34 28 -36 32 -16 32 12 0 22 5 22 10 0 6 -4 10
-10 10 -5 0 -10 16 -10 35 0 33 -1 34 -30 29 -23 -5 -30 -3 -30 9 0 9 12 18
30 22 34 7 41 25 10 25 -23 0 -41 31 -22 38 16 5 15 34 -3 58 -14 19 -20 12
-16 -21 0 -5 -10 -11 -23 -11 -28 -2 -52 36 -33 55 8 8 5 11 -11 11 -13 0 -22
6 -22 15 0 17 31 20 46 5 8 -8 15 -6 24 5 11 13 9 15 -12 15 -38 0 -56 28 -53
80 4 56 -10 87 -31 69 -8 -6 -14 -20 -14 -30 0 -11 -2 -19 -4 -19 -2 0 -11 -2
-19 -5 -9 -4 -14 1 -14 12 1 84 -15 113 -64 116 -19 1 -39 6 -46 10 -6 4 -19
0 -27 -9 -13 -13 -20 -14 -31 -4 -19 16 -19 31 0 24 9 -4 15 0 15 10 0 21 36
39 66 33 14 -2 27 0 30 4 3 5 0 9 -5 9 -6 0 -11 6 -11 14 0 23 -20 29 -39 12
-21 -19 -38 -21 -43 -4 -3 8 -13 7 -35 -4 -34 -17 -43 -14 -43 12 0 18 -19 19
-58 3 -21 -8 -22 -11 -9 -21 8 -7 20 -11 27 -10 7 2 15 -3 17 -9 7 -19 -54
-16 -65 3 -10 18 -63 10 -59 -10 1 -6 -11 -12 -27 -14 l-29 -4 26 32 c34 40
34 52 0 44 -24 -6 -26 -5 -15 8 10 13 9 18 -3 28 -13 10 -15 9 -15 -8 0 -11
-3 -28 -6 -37 -4 -9 -2 -15 4 -13 5 2 11 -1 11 -7 2 -14 -31 -17 -49 -5 -13 9
-13 12 3 21 19 11 23 39 6 56 -16 16 -67 -1 -101 -34 l-29 -27 -6 22 c-3 14
-11 21 -19 18 -8 -3 -20 -9 -28 -12 -14 -6 -30 22 -20 37 3 5 16 6 30 3 20 -5
24 -2 24 14 0 12 -4 23 -9 26 -13 8 -41 -4 -42 -18 -1 -20 -56 -56 -81 -52
-12 3 -26 5 -30 5 -22 2 -3 20 27 25 37 7 38 9 29 44 -6 19 -12 22 -43 20 -27
-2 -35 1 -33 11 2 8 -3 18 -10 22 -10 6 -10 11 -1 20 9 9 10 16 2 26 -9 10 -8
13 5 13 9 0 16 4 16 9 0 5 -16 8 -35 7 -43 -4 -47 2 -35 44 7 23 6 38 -2 47
-8 10 -7 18 5 31 8 9 18 29 22 44 5 21 2 29 -16 39 l-23 12 23 18 c17 14 20
22 13 36 -7 11 -7 24 0 36 8 15 6 18 -9 15 -12 -2 -19 4 -21 20 -2 15 -9 22
-20 20 -14 -2 -16 4 -14 32 2 19 8 40 13 47 7 7 6 14 -1 18 -6 3 -8 11 -5 16
4 5 2 9 -3 9 -16 0 -24 33 -10 41 6 4 25 5 40 2 24 -5 28 -2 28 16 0 12 -3 20
-7 18 -14 -8 -53 12 -53 27 0 23 22 31 35 13 17 -24 25 -21 25 9 0 15 -8 32
-17 39 -15 11 -14 14 10 30 15 9 27 26 27 36 0 11 6 19 14 19 9 0 12 7 9 20
-3 11 -12 20 -19 20 -26 0 -20 59 8 81 22 17 17 39 -8 39 -8 0 -14 4 -14 9 0
11 30 25 48 22 6 -1 12 3 12 9 0 5 8 10 18 10 10 0 27 6 37 14 16 12 22 10 47
-16 l28 -29 30 23 c30 24 41 54 15 45 -20 -8 -28 8 -10 23 10 9 15 9 15 1 0
-6 16 -11 35 -11 44 0 84 -32 67 -53 -9 -10 -7 -17 8 -30 11 -9 20 -24 20 -33
0 -11 9 -15 33 -14 56 3 61 2 47 -15 -13 -16 -4 -20 29 -15 13 1 13 -1 2 -14
-21 -25 -5 -30 18 -7 27 27 35 27 28 0 -4 -17 -3 -19 6 -10 16 16 78 15 72 -1
-2 -7 4 -24 15 -37 18 -21 23 -22 50 -11 31 13 37 24 20 35 -19 12 1 25 37 25
27 0 34 -3 30 -15 -4 -8 -2 -17 2 -20 5 -3 11 2 14 9 5 12 13 13 42 5 22 -6
47 -7 63 -2 23 8 71 9 145 4 10 -1 17 -9 17 -21 0 -13 7 -20 20 -20 12 0 20
-7 20 -17 1 -17 1 -17 11 0 18 31 38 21 32 -16 -5 -33 -4 -34 26 -29 35 5 43
-15 16 -42 -20 -20 -19 -23 10 -30 29 -7 32 -21 8 -35 -10 -5 -14 -13 -10 -17
5 -5 11 -3 15 3 4 7 25 13 47 14 22 1 50 8 61 15 25 15 39 7 23 -13 -13 -14
-9 -16 15 -7 9 3 16 12 16 20 0 26 19 14 22 -13 l4 -28 11 25 c11 24 12 24 12
3 1 -12 -4 -25 -10 -29 -15 -9 1 -22 34 -28 19 -3 30 0 34 10 7 19 23 18 23
-2 0 -13 7 -15 34 -11 28 4 34 3 29 -9 -3 -8 1 -14 11 -14 9 0 16 -7 16 -16 0
-13 3 -14 14 -5 8 7 30 14 48 17 25 3 37 -1 49 -17 21 -28 86 -34 94 -9 4 12
16 15 57 14 29 -2 58 2 65 8 7 6 26 8 43 5 40 -8 75 25 57 54 -7 11 -17 19
-24 19 -15 0 -18 19 -3 22 29 4 35 2 35 -12 0 -8 10 -16 23 -18 12 -2 22 1 22
7 0 6 -7 11 -15 11 -18 0 -19 9 -1 33 15 20 30 23 23 4 -3 -8 3 -14 14 -14 12
-1 19 5 19 15 0 15 -2 15 -10 2 -6 -9 -10 -10 -10 -3 0 6 4 14 10 18 5 3 6 13
3 22 -7 17 6 16 51 -3 16 -6 18 -4 14 14 -4 15 1 26 18 37 27 18 34 19 34 5 0
-5 -7 -10 -15 -10 -20 0 -19 -19 1 -27 9 -3 20 0 25 8 4 8 13 14 18 14 5 0 20
13 34 29 14 16 29 26 35 22 5 -3 13 4 17 17 6 19 8 19 12 5 2 -10 11 -18 19
-18 8 0 18 8 21 18 4 9 14 22 22 29 9 6 13 15 9 19 -5 4 -16 0 -26 -9 -27 -25
-45 -22 -36 6 8 27 2 23 47 31 23 4 37 3 37 -4 0 -15 27 -12 55 6 25 16 34 44
15 44 -5 0 -10 4 -10 9 0 5 16 9 37 8 27 -1 40 5 51 21 8 12 21 22 28 22 8 0
14 7 14 15 0 8 7 15 15 15 8 0 15 5 15 10 0 15 93 106 104 102 4 -2 30 20 56
48 26 27 50 50 54 50 17 0 86 86 86 107 0 14 6 23 15 23 8 0 15 4 15 9 0 5 9
13 20 16 12 4 20 15 20 28 0 12 4 28 9 36 7 10 4 19 -7 28 -12 9 -14 15 -6 20
6 5 16 18 23 30 6 12 17 20 25 17 15 -6 30 22 19 38 -3 7 -1 8 6 4 8 -5 10 0
7 18 -3 14 0 26 5 26 5 0 9 9 9 19 0 11 5 23 12 27 8 5 7 10 -4 18 -24 18 -26
39 -6 65 17 22 17 26 3 48 -14 21 -14 24 0 29 8 3 15 13 15 20 0 8 6 25 14 37
8 12 17 42 20 67 3 24 10 46 15 48 17 6 14 72 -4 72 -12 0 -13 5 -3 28 7 15
17 34 23 42 7 8 18 31 25 50 7 19 20 40 28 47 12 10 13 15 3 27 -7 8 -10 20
-7 25 10 15 -13 24 -29 11 -12 -10 -15 -10 -15 2 0 8 5 19 10 24 7 7 8 25 1
52 -5 25 -5 42 0 42 5 0 9 5 9 11 0 5 -5 7 -12 3 -6 -4 -8 -3 -5 4 13 19 -3
38 -48 57 -33 15 -43 24 -39 37 8 28 -14 30 -38 3 -25 -29 -27 -29 -52 -10
-18 13 -18 16 -4 32 8 10 15 26 15 35 0 14 -4 15 -20 6 -16 -8 -23 -7 -32 6
-7 9 -22 16 -33 16 -11 0 -24 4 -27 10 -3 5 -19 7 -34 4 -16 -4 -32 -1 -35 5
-4 6 -2 11 3 11 6 0 11 5 11 10 0 14 -37 12 -43 -2 -3 -9 -9 -8 -19 5 -8 11
-32 21 -58 24 -25 3 -50 10 -57 15 -7 6 -14 5 -18 -2 -5 -8 -12 -7 -23 4 -10
8 -29 17 -44 21 -15 4 -28 14 -30 22 -2 11 -10 9 -33 -11 -32 -28 -41 -31 -49
-17 -6 10 -125 25 -196 24 -25 0 -48 5 -52 11 -5 7 -8 5 -8 -5 0 -9 -9 -19
-20 -22 -12 -3 -20 0 -20 8 0 7 -7 15 -15 19 -18 7 -73 -3 -81 -15 -2 -4 -16
-4 -29 1 -20 7 -25 6 -25 -5 0 -15 -24 -19 -83 -15 -15 1 -34 -3 -42 -10 -10
-8 -17 -6 -29 11 l-16 23 -39 -32 c-43 -35 -51 -38 -51 -21 0 6 -6 17 -14 25
-12 12 -17 12 -28 1 -17 -17 -78 -39 -78 -28 0 5 7 12 16 15 13 5 14 9 4 21
-11 13 -16 12 -37 -9 -13 -14 -26 -37 -27 -53 -2 -20 -9 -29 -25 -31 -14 -2
-21 2 -21 12 0 9 -7 16 -15 16 -8 0 -24 9 -35 20 -11 11 -22 15 -25 10 -4 -6
-15 -10 -26 -10 -20 0 -26 -15 -9 -25 17 -11 11 -25 -12 -25 -12 0 -33 -14
-49 -32 -21 -25 -30 -30 -39 -21 -14 13 -5 33 16 33 8 0 14 8 14 18 0 10 6 24
12 30 10 10 6 10 -20 1 -18 -6 -38 -19 -45 -28 -18 -26 -51 -41 -75 -34 -15 3
-34 -4 -57 -21 -21 -17 -35 -22 -35 -14 1 18 20 40 53 61 39 25 26 34 -19 12
-44 -21 -81 -60 -90 -95 -9 -34 -33 -60 -56 -60 -15 0 -17 5 -12 25 8 30 -2
32 -32 4 l-22 -21 2 26 c0 14 4 26 8 26 4 0 13 12 20 26 7 15 32 37 55 49 24
12 50 29 59 36 10 8 20 13 23 11 3 -2 7 1 9 7 2 6 -8 6 -30 -1 -83 -28 -131
-57 -126 -79 2 -8 -14 -17 -42 -23 -59 -14 -74 -25 -89 -63 -17 -42 -34 -55
-66 -51 -27 3 -27 3 14 33 22 17 41 33 41 38 0 18 -24 4 -66 -38 -24 -25 -48
-45 -52 -45 -4 0 -18 -9 -32 -20 -31 -24 -59 -28 -40 -5 9 10 9 15 1 15 -6 0
-11 -4 -11 -9 0 -18 -81 -99 -106 -105 -14 -4 -53 -34 -87 -67 -34 -34 -80
-74 -103 -90 -64 -44 -137 -116 -130 -127 4 -6 -4 -20 -16 -31 -17 -17 -19
-24 -9 -34 10 -9 16 -7 31 13 10 13 18 27 17 30 -3 10 63 74 69 67 11 -11 -19
-59 -38 -65 -13 -3 -16 -11 -12 -27 5 -19 1 -24 -18 -27 -17 -2 -23 -10 -24
-31 -2 -52 -49 -65 -56 -15 -4 28 -41 39 -38 11 6 -51 3 -53 -60 -51 -53 3
-58 5 -43 16 10 7 17 18 15 24 -2 6 2 24 7 40 9 26 9 28 -10 17 -25 -13 -36
-5 -20 15 17 21 8 32 -26 30 -21 -1 -27 -6 -25 -20 1 -10 3 -31 3 -46 0 -16 5
-28 10 -28 5 0 9 -7 9 -15 0 -8 -7 -15 -15 -15 -12 0 -13 -5 -4 -27 13 -34 26
-43 64 -43 24 0 31 -4 31 -20 0 -11 -4 -20 -9 -20 -4 0 -5 -4 -2 -10 3 -5 1
-18 -4 -27 -6 -10 -11 -12 -11 -5 0 17 -25 15 -40 -3 -16 -19 -30 -19 -30 -1
0 22 -16 27 -44 15 -13 -6 -32 -9 -42 -5 -27 10 28 48 59 41 19 -5 25 -2 30
14 3 12 1 21 -4 21 -4 0 -6 7 -3 15 4 10 0 15 -14 15 -28 0 -39 20 -18 35 15
11 15 13 1 19 -12 4 -14 12 -9 28 6 20 5 21 -10 9 -9 -8 -20 -11 -24 -7 -4 4
2 14 13 22 17 13 18 16 5 24 -8 5 -21 10 -27 10 -16 0 -16 6 1 63 9 30 10 49
4 55 -12 12 -2 32 16 32 19 0 62 23 64 35 1 5 -6 10 -16 10 -12 0 -17 8 -17
30 0 23 4 29 18 27 10 -2 17 3 17 14 0 11 -6 15 -20 11 -33 -9 -23 8 11 18
l32 10 4 88 c3 81 6 90 31 113 15 13 35 22 44 20 15 -3 17 2 13 39 -3 34 0 45
13 51 9 4 20 6 25 6 4 -1 7 6 7 16 0 11 9 29 20 42 21 25 26 50 10 50 -5 0
-10 -5 -10 -12 0 -6 -9 -1 -20 12 -15 17 -17 27 -9 41 7 15 6 21 -5 25 -12 4
-13 11 -5 32 5 14 8 31 5 39 -7 18 13 61 47 97 15 17 27 36 27 43 0 6 15 26
32 42 28 26 30 30 10 24 -21 -5 -22 -4 -12 22 9 24 7 30 -15 51 -14 13 -25 34
-25 47 0 33 -10 40 -32 20 -10 -9 -21 -13 -25 -9 -5 4 0 12 9 17 12 6 17 21
16 44 -1 24 5 41 20 54 12 10 22 25 22 33 0 9 12 27 26 42 19 19 24 29 16 38
-16 21 -3 66 21 70 11 2 22 9 25 17 4 11 -3 12 -32 7 -49 -9 -47 10 4 48 22
17 40 36 40 44 0 13 -3 12 -18 -1 -17 -15 -52 -24 -52 -13 0 19 16 36 33 36
11 0 35 11 53 25 18 14 39 25 47 25 9 0 17 5 19 10 5 15 58 22 73 10 10 -8 16
-7 22 5 12 21 44 9 35 -13 -5 -15 -4 -15 11 -3 9 7 14 17 11 23 -7 12 15 38
32 38 8 0 15 -10 15 -22 l2 -23 4 23 c3 15 10 22 19 18 8 -3 14 -1 14 4 0 5 9
12 21 15 12 4 18 12 15 21 -3 8 1 14 9 14 7 0 17 -9 20 -21 7 -21 29 -21 31
-1 3 23 4 24 18 13 10 -9 16 -7 27 5 10 13 10 17 -1 24 -23 14 -2 24 25 12 21
-10 25 -9 25 3 0 8 -5 15 -11 15 -5 0 -7 5 -4 10 4 7 11 7 18 2 7 -5 31 -12
55 -15 31 -4 42 -2 42 8 0 8 6 18 13 22 8 4 19 17 25 28 9 16 10 11 5 -25 l-5
-45 28 43 c16 23 34 42 42 42 7 0 10 -5 6 -12 -5 -8 4 -9 35 -4 32 5 43 3 47
-9 4 -8 14 -15 24 -15 24 0 42 -24 33 -46 -6 -17 -5 -18 13 -4 10 8 29 23 42
34 l22 19 0 -22 c0 -12 -4 -19 -10 -16 -5 3 -10 1 -10 -4 0 -7 20 -10 49 -8
l48 2 -3 38 c-2 20 1 37 6 37 6 0 10 -16 10 -36 0 -31 2 -35 15 -24 8 7 22 9
32 6 9 -4 20 -1 25 6 6 10 8 10 8 1 0 -7 7 -10 18 -6 12 4 10 -1 -7 -15 -13
-12 -27 -22 -32 -22 -4 0 -5 -9 -2 -20 7 -28 21 -25 29 5 6 24 34 36 34 15 0
-5 5 -10 10 -10 6 0 6 7 -1 18 -9 14 -9 24 -1 38 10 17 11 17 12 2 0 -19 15
-24 25 -8 3 5 12 7 19 4 8 -3 17 -1 21 5 3 6 15 11 27 11 17 0 18 -3 8 -14
-14 -17 -2 -40 21 -42 11 -1 14 5 11 21 -2 13 1 31 7 42 10 17 10 17 11 0 0
-13 6 -17 23 -15 15 2 21 9 19 21 -2 13 4 17 28 17 16 0 30 -4 30 -10 0 -18
20 -11 21 8 0 12 3 10 10 -8 10 -24 11 -25 25 -5 12 17 12 20 -1 28 -24 13
-18 44 15 77 27 28 30 29 30 10 0 -12 -9 -24 -22 -29 -14 -5 -18 -10 -10 -15
17 -10 52 3 52 20 0 8 9 14 20 14 26 0 25 8 -2 30 -13 10 -20 21 -17 25 4 3
14 -1 22 -10 9 -8 23 -15 31 -15 9 0 16 -4 16 -10 0 -5 6 -10 14 -10 16 0 28
60 12 60 -18 1 -61 38 -53 46 4 4 15 0 26 -10 10 -9 25 -16 32 -14 18 4 39 24
39 37 0 6 9 11 20 11 11 0 20 3 20 8 0 4 12 20 27 36 l26 28 19 -23 c12 -16
16 -18 12 -6 -3 9 1 28 9 41 12 18 13 26 4 36 -9 10 -8 12 5 7 22 -8 55 22 60
53 1 14 11 26 21 28 15 3 17 -1 12 -25 -6 -27 -6 -27 9 -9 10 12 12 23 7 30
-6 7 2 22 24 43 31 29 34 31 60 17 30 -16 49 -10 41 13 -4 11 -1 13 14 8 16
-5 20 -2 20 18 0 26 23 52 38 43 13 -8 29 13 37 46 4 16 12 25 18 21 9 -6 67
-11 67 -6 0 1 -4 13 -10 27 -8 22 -7 26 10 26 10 0 22 5 25 10 5 8 11 7 21 -1
8 -6 14 -8 14 -4 0 4 7 2 15 -5 12 -10 15 -10 15 3 0 8 7 20 16 27 8 8 14 9
13 4 -4 -21 2 -26 16 -14 8 7 15 24 16 39 0 26 0 26 11 4 7 -16 20 -23 37 -22
26 0 26 0 4 9 -13 5 -23 11 -23 12 0 2 25 3 56 4 34 0 59 6 64 13 6 10 9 10
15 1 4 -7 2 -16 -6 -21 -7 -4 -10 -12 -5 -16 5 -4 11 -2 13 5 5 14 33 17 33 3
0 -11 48 -2 56 11 3 5 12 1 18 -8 7 -9 18 -14 24 -10 17 10 15 26 -3 26 -8 0
-15 7 -15 16 0 13 3 14 15 4 12 -10 16 -9 22 8 7 18 10 19 27 6 16 -11 17 -17
8 -26 -19 -19 -14 -37 9 -31 11 3 18 11 15 18 -6 18 30 49 45 39 9 -5 7 -11
-6 -21 -21 -14 -20 -15 45 -17 36 -1 44 -4 42 -18 -1 -9 6 -21 16 -27 14 -7
23 -3 42 20 17 23 29 29 46 25 13 -4 26 -1 29 4 4 6 14 1 26 -12 l19 -23 -3
24 c-1 13 4 26 12 29 10 3 12 0 8 -11 -4 -11 0 -13 14 -10 10 3 19 9 19 14 0
15 44 28 57 17 7 -6 12 -13 11 -16 -2 -21 4 -32 17 -32 11 0 15 11 15 40 0 48
15 53 24 8 l7 -33 16 23 c17 25 38 30 29 7 -3 -9 0 -15 9 -15 8 0 15 4 15 10
0 6 10 6 27 -1 18 -7 30 -6 37 1 17 17 36 11 36 -10 0 -24 13 -26 30 -5 9 11
22 14 42 10 17 -4 28 -2 28 4 0 6 7 11 15 11 8 0 14 3 14 8 -3 19 2 25 11 12
12 -19 46 0 42 24 -2 9 5 19 15 22 10 3 33 13 51 22 27 14 34 15 41 3 6 -9 16
-11 32 -6 21 7 22 8 5 21 -13 9 -15 17 -9 29 9 16 11 15 28 -1 17 -17 19 -17
47 -1 l30 17 -6 -24 c-5 -20 -3 -23 14 -19 11 3 20 12 20 19 0 8 5 14 10 14 6
0 10 -4 10 -9 0 -5 11 -11 25 -13 13 -3 22 -1 19 3 -3 5 -1 9 4 9 6 0 13 -8
17 -17 6 -17 7 -17 16 0 12 20 35 23 41 5 3 -9 9 -8 22 5 10 9 22 17 27 17 5
0 9 7 9 16 0 9 7 14 18 12 9 -2 17 -12 17 -23 0 -11 5 -18 10 -16 6 2 16 6 23
8 6 3 12 13 12 23 0 13 7 18 21 17 16 -1 19 -7 16 -24 -5 -29 23 -32 30 -3 3
10 14 22 24 25 18 6 21 36 6 51 -13 13 -7 32 11 37 25 5 35 -8 23 -32z m644
-750 c-3 -10 1 -24 10 -31 26 -22 18 -40 -18 -40 -40 0 -51 8 -35 27 15 18 5
26 -14 10 -12 -9 -14 -18 -7 -34 7 -19 16 -23 49 -23 23 0 40 -5 40 -11 0 -8
4 -8 14 0 10 8 21 8 46 -3 18 -7 28 -16 22 -20 -6 -4 -9 -13 -6 -20 3 -8 1
-17 -5 -21 -7 -3 -11 2 -11 14 0 25 -17 27 -41 5 -16 -14 -19 -14 -38 5 -25
25 -38 27 -43 6 -5 -23 -26 -3 -31 29 -2 16 -11 34 -21 41 -11 9 -14 15 -6 20
8 5 8 10 0 20 -12 14 -6 35 10 35 4 0 6 -9 3 -20 -3 -11 0 -20 6 -20 6 0 11 6
11 13 0 15 51 48 63 40 4 -2 5 -13 2 -22z m-4401 -1759 c3 -5 -11 -15 -30 -22
-20 -8 -51 -31 -70 -52 -19 -21 -41 -38 -50 -38 -9 0 -22 -7 -29 -16 -6 -9
-22 -17 -35 -18 -22 -1 -33 -13 -44 -48 -3 -10 -20 -20 -41 -24 -22 -4 -42
-16 -52 -31 -9 -13 -30 -31 -47 -40 -17 -8 -39 -24 -49 -34 -15 -17 -47 -26
-47 -15 0 2 32 35 71 73 50 48 78 68 96 68 15 0 30 8 37 19 15 26 58 65 72 66
19 0 70 29 89 50 10 11 26 20 36 20 10 0 22 6 26 13 8 12 42 35 55 36 4 1 9
-3 12 -7z m4666 -382 c-9 -6 2 -11 36 -16 27 -4 55 -7 62 -5 8 1 20 -3 28 -10
8 -6 24 -9 35 -6 12 3 40 -3 63 -13 22 -10 51 -21 64 -25 12 -3 22 -11 22 -16
0 -5 8 -9 19 -9 10 0 30 -11 45 -25 15 -14 31 -25 37 -25 5 0 9 -4 9 -9 0 -5
-9 -7 -20 -4 -13 4 -27 -2 -40 -17 -19 -22 -40 -20 -40 5 0 8 -7 11 -20 8 -15
-4 -20 0 -20 15 0 23 -28 38 -44 22 -13 -13 -29 -13 -21 -1 3 5 1 12 -5 16 -5
3 -10 1 -10 -4 0 -15 -47 -14 -57 2 -4 6 -6 19 -5 29 2 11 -7 18 -29 23 -20 5
-27 10 -19 15 18 11 -32 21 -71 13 -23 -4 -30 -3 -25 5 10 17 -9 15 -23 -1
-15 -19 -3 -28 25 -21 29 7 32 -11 5 -26 -23 -12 -42 -13 -39 -2 1 4 -4 20
-10 35 -19 44 -15 52 25 54 24 1 33 -1 23 -7z m-3650 -130 c13 -11 20 -23 17
-26 -11 -12 40 -44 60 -38 16 5 16 4 -1 -10 -11 -9 -28 -13 -39 -10 -15 5 -18
2 -13 -13 9 -27 -35 -65 -52 -46 -17 18 -66 17 -59 0 4 -11 -6 -13 -41 -12
-26 1 -68 -4 -94 -11 -26 -6 -49 -10 -52 -7 -3 3 -25 -5 -50 -17 -25 -12 -50
-19 -56 -15 -5 3 -13 -1 -16 -9 -8 -22 -24 -20 -24 2 0 10 -3 21 -6 24 -10 10
-134 -66 -134 -82 0 -9 -9 -16 -20 -16 -23 0 -27 14 -6 22 8 3 17 12 20 20 4
11 -1 13 -19 10 -18 -3 -25 0 -25 11 0 10 6 13 18 9 14 -5 14 -4 -2 9 -11 8
-18 15 -15 16 2 0 13 2 24 3 24 3 66 25 48 26 -7 0 -13 5 -13 11 0 6 8 8 19 4
14 -4 29 4 54 30 19 19 43 35 53 35 11 0 37 9 59 20 22 11 47 20 57 20 9 0 20
5 23 10 3 6 21 10 40 10 19 0 36 4 39 9 3 4 17 6 31 3 14 -2 31 1 39 7 11 9
19 9 36 -1 17 -11 22 -11 29 1 5 7 13 11 19 7 6 -3 13 -2 17 4 8 13 8 13 35
-10z m2720 -5140 c0 -5 7 -10 16 -10 9 0 30 -11 46 -26 17 -14 37 -23 44 -20
7 3 16 1 19 -4 10 -16 52 -12 59 5 13 34 31 12 40 -48 4 -28 21 -18 19 10 -2
20 1 23 9 15 16 -16 28 -15 28 3 0 8 7 15 15 15 8 0 15 6 15 14 0 20 36 26 59
9 19 -12 21 -12 21 1 0 9 5 16 10 16 6 0 10 -4 10 -10 0 -5 6 -10 14 -10 7 0
18 -6 24 -13 8 -10 6 -16 -9 -25 -15 -10 -19 -10 -19 0 0 16 -53 15 -97 -1
-30 -12 -31 -14 -15 -31 8 -11 20 -16 25 -13 11 7 62 14 111 15 37 0 66 -19
66 -43 0 -10 -72 1 -84 12 -16 14 -36 10 -36 -6 0 -8 -7 -15 -15 -15 -26 0
-16 -29 15 -45 29 -15 30 -15 30 6 0 12 5 19 13 16 6 -2 19 2 27 9 13 11 24
11 53 2 20 -6 37 -17 37 -25 0 -7 7 -13 15 -13 8 0 15 5 15 11 0 6 8 8 19 4
11 -3 22 -1 26 5 10 17 51 11 70 -10 16 -17 16 -20 2 -20 -9 0 -19 -5 -22 -10
-7 -12 20 -42 29 -32 4 3 4 -1 1 -10 -4 -10 -12 -16 -18 -15 -7 1 -12 -11 -13
-28 -2 -53 -3 -55 -34 -51 -16 2 -30 -1 -30 -5 0 -5 7 -9 15 -9 21 0 31 -30
15 -40 -11 -7 -11 -14 -2 -35 17 -36 15 -44 -8 -42 -11 1 -20 7 -20 14 0 23
-18 14 -24 -13 l-7 -27 -16 23 c-14 20 -17 21 -25 6 -5 -9 -22 -16 -40 -16
-27 0 -29 -2 -17 -16 11 -14 9 -19 -11 -35 -25 -20 -46 -31 -87 -43 -18 -6
-22 -3 -25 18 -3 22 -5 23 -21 11 -16 -11 -16 -15 -3 -28 10 -9 11 -18 5 -24
-12 -12 -61 -4 -53 8 3 5 1 9 -4 9 -6 0 -12 -7 -16 -15 -6 -18 -37 -20 -53 -4
-8 8 -21 7 -47 -2 -29 -11 -41 -11 -56 -1 -28 17 -40 15 -40 -9 0 -12 -5 -19
-12 -16 -7 2 -11 11 -9 18 8 34 7 45 -8 57 -12 10 -13 15 -3 18 19 9 14 26 -6
20 -9 -3 -32 -2 -50 3 -27 8 -34 7 -40 -7 -11 -30 -39 -55 -47 -42 -4 7 -2 16
6 21 10 6 6 11 -16 19 -15 6 -36 9 -44 7 -9 -3 -6 -5 8 -6 20 -1 21 -3 11 -16
-7 -8 -17 -12 -24 -8 -11 7 -16 8 -68 11 -17 1 -29 9 -33 23 -7 20 -20 18 -20
-3 0 -6 -6 -13 -14 -16 -10 -3 -12 1 -8 14 5 15 3 14 -9 -3 -19 -27 -36 -30
-32 -6 2 10 -5 19 -16 21 -14 3 -17 0 -13 -11 8 -20 -2 -28 -22 -18 -9 5 -27
5 -40 0 -23 -9 -23 -10 -6 -23 18 -13 18 -14 -3 -25 -17 -9 -22 -9 -23 1 -1 7
-2 21 -3 32 0 10 -9 24 -19 30 -15 9 -22 7 -35 -9 -19 -23 -66 -29 -58 -8 3 7
3 20 -1 29 -5 12 -11 10 -34 -16 -16 -17 -29 -34 -29 -38 0 -17 -49 -62 -55
-52 -4 6 -19 16 -33 22 -16 6 -22 12 -14 15 6 3 12 8 12 13 0 14 -66 39 -88
33 -13 -3 -22 -1 -22 6 0 10 14 15 33 12 4 -1 20 -3 35 -4 15 -2 33 -7 40 -11
9 -6 10 -2 1 18 -7 14 -19 27 -28 29 -11 3 -9 5 6 6 12 0 34 6 50 12 24 9 26
12 12 22 -17 13 -35 52 -19 42 6 -3 10 1 10 9 0 21 -38 30 -58 14 -15 -12 -16
-11 -3 5 7 9 24 17 36 17 12 0 28 7 35 15 16 19 26 12 33 -25 4 -16 11 -30 17
-30 13 0 13 17 0 25 -15 10 -12 28 4 22 8 -3 17 -1 20 6 3 9 7 8 15 -3 14 -20
22 -9 14 19 -6 22 -14 23 -55 6 -13 -5 -18 -2 -18 10 0 9 9 19 20 22 24 6 24
12 5 37 -17 23 -19 36 -5 36 6 0 10 -8 10 -19 0 -10 7 -25 16 -32 14 -11 18
-10 30 6 12 16 14 16 14 3 0 -9 -5 -18 -12 -20 -7 -3 -8 -9 -3 -18 7 -11 10
-10 19 2 6 8 22 15 35 14 13 -1 26 5 28 12 3 6 -2 12 -11 12 -20 0 -27 13 -15
30 8 13 10 13 18 1 8 -12 11 -9 16 12 8 29 20 35 28 15 3 -8 6 -6 6 5 1 9 -6
17 -14 17 -8 0 -15 5 -15 10 0 6 9 10 20 10 11 0 20 6 20 13 0 8 3 8 8 2 17
-25 54 -2 46 30 -3 12 -1 26 5 29 13 8 30 -23 33 -63 1 -17 8 -31 15 -31 22 0
25 -21 4 -27 -11 -3 -18 -9 -15 -14 5 -9 44 8 79 36 19 15 19 17 3 29 -17 12
-17 16 -2 45 15 31 34 34 34 5 0 -8 10 -14 25 -14 25 0 35 23 16 34 -5 3 -7
15 -4 26 3 11 9 17 14 15 4 -3 6 -12 2 -20 -3 -8 0 -15 6 -15 6 0 11 11 11 25
0 29 5 30 40 10 32 -18 40 -18 40 0 0 16 36 21 42 7 6 -15 68 8 68 24 0 9 -6
14 -13 11 -8 -3 -14 3 -14 14 -1 10 2 19 8 19 5 0 9 -4 9 -10z m-1145 -63 c5
-1 15 -9 21 -17 10 -12 14 -12 29 0 14 12 18 12 26 -1 12 -19 11 -39 -1 -39
-5 0 -10 -7 -10 -15 0 -8 -4 -15 -10 -15 -5 0 -10 -6 -10 -14 0 -7 -7 -19 -15
-26 -8 -7 -15 -19 -15 -26 0 -8 7 -14 15 -14 9 0 15 9 15 24 0 14 4 27 10 31
14 9 50 -17 50 -37 0 -14 6 -16 30 -11 26 5 30 2 30 -15 0 -28 15 -36 33 -17
22 22 26 19 25 -17 -1 -18 -14 -50 -29 -72 -30 -44 -30 -46 -2 -50 12 -2 20
-14 24 -37 4 -19 7 -30 8 -25 0 5 7 4 14 -2 6 -6 17 -11 22 -13 6 -1 9 -10 7
-21 -2 -10 1 -18 7 -18 6 0 8 6 6 13 -6 15 50 41 72 33 21 -8 13 -15 -21 -18
-20 -2 -26 -7 -23 -19 3 -12 0 -16 -9 -12 -8 3 -14 0 -14 -6 0 -8 -6 -7 -20 1
-17 11 -22 10 -29 -1 -5 -8 -7 -20 -5 -26 3 -7 -4 -15 -15 -18 -26 -6 -37 8
-14 17 13 5 14 9 3 19 -10 9 -13 9 -17 0 -3 -7 -12 -13 -21 -13 -30 -1 -55
-26 -45 -47 5 -10 9 -25 8 -33 -1 -8 -3 -21 -3 -27 -1 -7 -6 -13 -12 -13 -5 0
-10 6 -10 13 -1 6 -16 21 -34 33 -28 18 -36 19 -51 8 -15 -11 -23 -11 -47 4
-25 15 -30 15 -39 2 -6 -10 -7 -2 -3 28 6 36 4 42 -11 42 -9 0 -19 -9 -22 -19
-3 -11 -18 -25 -34 -31 -15 -7 -27 -17 -26 -22 1 -5 -6 -15 -15 -21 -13 -9
-21 -7 -37 7 -11 10 -25 15 -30 11 -6 -3 -16 6 -21 21 l-11 27 -24 -23 c-13
-12 -30 -20 -37 -17 -18 6 -45 -14 -55 -41 -12 -31 -36 -12 -35 27 0 17 -3 31
-8 31 -14 0 -21 -32 -10 -45 15 -18 2 -44 -20 -38 -10 3 -21 0 -24 -6 -5 -7
-13 -7 -28 2 -15 9 -22 9 -25 1 -4 -13 -62 3 -75 20 -4 6 -14 4 -24 -5 -9 -7
-27 -12 -39 -11 -12 2 -30 -4 -39 -13 -13 -13 -16 -14 -16 -2 0 10 -13 14 -45
14 -25 0 -45 -5 -45 -10 0 -6 -8 -3 -17 5 -10 9 -42 18 -71 20 -52 5 -78 17
-54 25 6 3 12 9 12 14 0 14 -48 11 -53 -3 -3 -8 -6 -6 -6 5 -1 10 -9 17 -21
17 -12 0 -17 5 -14 13 3 8 16 12 33 9 16 -2 31 1 35 6 7 12 -18 64 -27 55 -4
-3 -7 -2 -7 4 0 6 -19 14 -42 17 -24 3 -49 7 -55 8 -18 2 -16 15 2 22 18 6 20
56 3 56 -9 0 -9 3 0 12 7 7 12 21 12 31 0 23 47 70 61 62 13 -9 11 -25 -3 -25
-14 0 -48 -30 -48 -42 0 -14 43 2 64 25 16 16 17 23 8 38 -7 10 -12 25 -12 34
0 9 -6 12 -15 8 -13 -5 -14 -2 -4 21 7 14 18 26 26 26 7 0 13 9 13 19 0 12 11
23 31 30 39 13 59 14 39 1 -11 -7 -12 -12 -4 -20 13 -13 68 10 77 32 3 7 6 1
6 -14 1 -26 21 -42 21 -17 0 5 5 7 10 4 6 -3 10 -1 10 4 0 6 -4 11 -10 11 -5
0 -10 7 -10 16 0 12 5 14 18 9 31 -14 79 -17 86 -6 4 6 13 11 19 11 7 0 6 -4
-3 -11 -11 -8 -6 -9 23 -5 33 4 37 2 37 -17 1 -20 2 -21 14 -4 17 22 26 22 26
-3 0 -23 18 -27 26 -6 3 8 12 12 20 9 7 -3 25 5 40 16 27 22 60 29 49 11 -3
-5 -4 -14 0 -20 8 -13 35 -1 35 16 0 10 14 14 48 14 36 0 52 5 65 21 12 13 24
18 37 14 11 -3 27 -2 37 3 10 6 26 6 39 2 14 -6 28 -4 42 5 11 8 47 15 80 17
36 1 58 6 55 12 -4 6 1 6 13 2 10 -4 23 -8 29 -9z m-3785 -3971 c0 -11 -34
-83 -45 -96 -7 -8 -15 -32 -19 -52 -6 -36 -47 -78 -75 -78 -6 0 -11 -20 -11
-48 0 -39 -5 -53 -26 -72 -14 -14 -33 -43 -43 -66 -21 -47 -32 -57 -55 -48
-21 8 -14 31 36 114 22 36 45 74 51 85 7 10 18 25 25 33 6 7 12 20 12 27 0 8
14 34 30 58 17 25 30 48 30 52 0 16 62 95 75 95 8 0 15 -2 15 -4z m783 -692
c3 -4 0 -19 -8 -35 -8 -15 -15 -32 -15 -37 0 -5 34 -8 75 -8 41 1 75 -1 75 -3
0 -3 -10 -15 -22 -28 -18 -19 -32 -23 -83 -23 -59 0 -145 -29 -145 -48 0 -5
-19 -16 -42 -27 -34 -14 -49 -16 -79 -8 -27 7 -43 6 -61 -3 -49 -27 -138 -29
-138 -3 0 5 12 19 26 32 15 12 37 39 51 60 18 28 30 37 46 35 18 -2 21 -9 19
-33 -2 -16 3 -38 10 -47 12 -16 20 -16 86 -5 66 11 79 18 118 56 29 28 44 51
44 67 0 43 25 76 43 58z"/>
</g>
</svg>
